solid Exported from Blender-2.93.3
facet normal 0.000000 0.000000 1.000000
outer loop
vertex -1.356941 9.908711 0.000000
vertex 1.356941 9.908711 0.000000
vertex 0.000000 10.000000 0.000000
endloop
endfacet
facet normal 0.000000 0.000000 1.000000
outer loop
vertex -2.658396 9.642790 0.000000
vertex 1.356941 9.908711 0.000000
vertex -1.356941 9.908711 0.000000
endloop
endfacet
facet normal 0.000000 0.000000 1.000000
outer loop
vertex -2.658396 9.642790 0.000000
vertex 2.658396 9.642790 0.000000
vertex 1.356941 9.908711 0.000000
endloop
endfacet
facet normal 0.000000 0.000000 1.000000
outer loop
vertex -3.892451 9.214149 0.000000
vertex 2.658396 9.642790 0.000000
vertex -2.658396 9.642790 0.000000
endloop
endfacet
facet normal 0.000000 0.000000 1.000000
outer loop
vertex -3.892451 9.214149 0.000000
vertex 3.892451 9.214150 0.000000
vertex 2.658396 9.642790 0.000000
endloop
endfacet
facet normal 0.000000 0.000000 1.000000
outer loop
vertex -3.892451 9.214149 0.000000
vertex 5.047191 8.634706 0.000000
vertex 3.892451 9.214150 0.000000
endloop
endfacet
facet normal 0.000000 0.000000 1.000000
outer loop
vertex -5.047192 8.634706 0.000000
vertex 5.047191 8.634706 0.000000
vertex -3.892451 9.214149 0.000000
endloop
endfacet
facet normal 0.000000 0.000000 1.000000
outer loop
vertex -5.047192 8.634706 0.000000
vertex 6.110701 7.916374 0.000000
vertex 5.047191 8.634706 0.000000
endloop
endfacet
facet normal 0.000000 0.000000 1.000000
outer loop
vertex -6.110702 7.916373 0.000000
vertex 6.110701 7.916374 0.000000
vertex -5.047192 8.634706 0.000000
endloop
endfacet
facet normal 0.000000 0.000000 1.000000
outer loop
vertex -6.110702 7.916373 0.000000
vertex 7.071067 7.071068 0.000000
vertex 6.110701 7.916374 0.000000
endloop
endfacet
facet normal 0.000000 0.000000 1.000000
outer loop
vertex -7.071068 7.071067 0.000000
vertex 7.071067 7.071068 0.000000
vertex -6.110702 7.916373 0.000000
endloop
endfacet
facet normal 0.000000 0.000000 1.000000
outer loop
vertex -7.071068 7.071067 0.000000
vertex 7.916373 6.110702 0.000000
vertex 7.071067 7.071068 0.000000
endloop
endfacet
facet normal 0.000000 0.000000 1.000000
outer loop
vertex -7.916374 6.110701 0.000000
vertex 7.916373 6.110702 0.000000
vertex -7.071068 7.071067 0.000000
endloop
endfacet
facet normal 0.000000 0.000000 1.000000
outer loop
vertex -7.916374 6.110701 0.000000
vertex 8.634706 5.047192 0.000000
vertex 7.916373 6.110702 0.000000
endloop
endfacet
facet normal 0.000000 0.000000 1.000000
outer loop
vertex -8.634706 5.047191 0.000000
vertex 8.634706 5.047192 0.000000
vertex -7.916374 6.110701 0.000000
endloop
endfacet
facet normal 0.000000 0.000000 1.000000
outer loop
vertex -8.634706 5.047191 0.000000
vertex 9.214149 3.892451 0.000000
vertex 8.634706 5.047192 0.000000
endloop
endfacet
facet normal 0.000000 0.000000 1.000000
outer loop
vertex -9.214150 3.892451 0.000000
vertex 9.214149 3.892451 0.000000
vertex -8.634706 5.047191 0.000000
endloop
endfacet
facet normal 0.000000 0.000000 1.000000
outer loop
vertex -9.214150 3.892451 0.000000
vertex 9.642790 2.658396 0.000000
vertex 9.214149 3.892451 0.000000
endloop
endfacet
facet normal 0.000000 0.000000 1.000000
outer loop
vertex -9.642790 2.658396 0.000000
vertex 9.642790 2.658396 0.000000
vertex -9.214150 3.892451 0.000000
endloop
endfacet
facet normal 0.000000 0.000000 1.000000
outer loop
vertex -9.642790 2.658396 0.000000
vertex 9.908711 1.356941 0.000000
vertex 9.642790 2.658396 0.000000
endloop
endfacet
facet normal 0.000000 0.000000 1.000000
outer loop
vertex -9.908711 1.356941 0.000000
vertex 9.908711 1.356941 0.000000
vertex -9.642790 2.658396 0.000000
endloop
endfacet
facet normal 0.000000 0.000000 1.000000
outer loop
vertex -9.908711 1.356941 0.000000
vertex 10.000000 0.000000 0.000000
vertex 9.908711 1.356941 0.000000
endloop
endfacet
facet normal 0.000000 0.000000 1.000000
outer loop
vertex -10.000000 0.000000 0.000000
vertex 10.000000 0.000000 0.000000
vertex -9.908711 1.356941 0.000000
endloop
endfacet
facet normal 0.000000 0.000000 1.000000
outer loop
vertex -9.908711 -1.356941 0.000000
vertex 10.000000 0.000000 0.000000
vertex -10.000000 0.000000 0.000000
endloop
endfacet
facet normal 0.000000 0.000000 1.000000
outer loop
vertex -9.908711 -1.356941 0.000000
vertex 9.908711 -1.356941 0.000000
vertex 10.000000 0.000000 0.000000
endloop
endfacet
facet normal 0.000000 0.000000 1.000000
outer loop
vertex -9.908711 -1.356941 0.000000
vertex 9.642790 -2.658396 0.000000
vertex 9.908711 -1.356941 0.000000
endloop
endfacet
facet normal 0.000000 0.000000 1.000000
outer loop
vertex -9.642790 -2.658396 0.000000
vertex 9.642790 -2.658396 0.000000
vertex -9.908711 -1.356941 0.000000
endloop
endfacet
facet normal 0.000000 0.000000 1.000000
outer loop
vertex -9.642790 -2.658396 0.000000
vertex 9.214150 -3.892451 0.000000
vertex 9.642790 -2.658396 0.000000
endloop
endfacet
facet normal 0.000000 0.000000 1.000000
outer loop
vertex -9.214149 -3.892451 0.000000
vertex 9.214150 -3.892451 0.000000
vertex -9.642790 -2.658396 0.000000
endloop
endfacet
facet normal 0.000000 0.000000 1.000000
outer loop
vertex -9.214149 -3.892451 0.000000
vertex 8.634706 -5.047191 0.000000
vertex 9.214150 -3.892451 0.000000
endloop
endfacet
facet normal 0.000000 0.000000 1.000000
outer loop
vertex -8.634706 -5.047192 0.000000
vertex 8.634706 -5.047191 0.000000
vertex -9.214149 -3.892451 0.000000
endloop
endfacet
facet normal 0.000000 0.000000 1.000000
outer loop
vertex -8.634706 -5.047192 0.000000
vertex 7.916374 -6.110701 0.000000
vertex 8.634706 -5.047191 0.000000
endloop
endfacet
facet normal 0.000000 0.000000 1.000000
outer loop
vertex -7.916373 -6.110702 0.000000
vertex 7.916374 -6.110701 0.000000
vertex -8.634706 -5.047192 0.000000
endloop
endfacet
facet normal 0.000000 0.000000 1.000000
outer loop
vertex -7.916373 -6.110702 0.000000
vertex 7.071068 -7.071067 0.000000
vertex 7.916374 -6.110701 0.000000
endloop
endfacet
facet normal 0.000000 0.000000 1.000000
outer loop
vertex -7.071067 -7.071068 0.000000
vertex 7.071068 -7.071067 0.000000
vertex -7.916373 -6.110702 0.000000
endloop
endfacet
facet normal 0.000000 0.000000 1.000000
outer loop
vertex -7.071067 -7.071068 0.000000
vertex 6.110702 -7.916373 0.000000
vertex 7.071068 -7.071067 0.000000
endloop
endfacet
facet normal 0.000000 0.000000 1.000000
outer loop
vertex -6.110701 -7.916374 0.000000
vertex 6.110702 -7.916373 0.000000
vertex -7.071067 -7.071068 0.000000
endloop
endfacet
facet normal 0.000000 0.000000 1.000000
outer loop
vertex -6.110701 -7.916374 0.000000
vertex 5.047192 -8.634706 0.000000
vertex 6.110702 -7.916373 0.000000
endloop
endfacet
facet normal 0.000000 0.000000 1.000000
outer loop
vertex -5.047191 -8.634706 0.000000
vertex 5.047192 -8.634706 0.000000
vertex -6.110701 -7.916374 0.000000
endloop
endfacet
facet normal 0.000000 0.000000 1.000000
outer loop
vertex -5.047191 -8.634706 0.000000
vertex 3.892451 -9.214149 0.000000
vertex 5.047192 -8.634706 0.000000
endloop
endfacet
facet normal 0.000000 0.000000 1.000000
outer loop
vertex -3.892451 -9.214150 0.000000
vertex 3.892451 -9.214149 0.000000
vertex -5.047191 -8.634706 0.000000
endloop
endfacet
facet normal 0.000000 0.000000 1.000000
outer loop
vertex -3.892451 -9.214150 0.000000
vertex 2.658396 -9.642790 0.000000
vertex 3.892451 -9.214149 0.000000
endloop
endfacet
facet normal 0.000000 0.000000 1.000000
outer loop
vertex -2.658396 -9.642790 0.000000
vertex 2.658396 -9.642790 0.000000
vertex -3.892451 -9.214150 0.000000
endloop
endfacet
facet normal 0.000000 0.000000 1.000000
outer loop
vertex -1.356941 -9.908711 0.000000
vertex 2.658396 -9.642790 0.000000
vertex -2.658396 -9.642790 0.000000
endloop
endfacet
facet normal 0.000000 0.000000 1.000000
outer loop
vertex -1.356941 -9.908711 0.000000
vertex 1.356941 -9.908711 0.000000
vertex 2.658396 -9.642790 0.000000
endloop
endfacet
facet normal 0.000000 0.000000 1.000000
outer loop
vertex -0.000000 -10.000000 0.000000
vertex 1.356941 -9.908711 0.000000
vertex -1.356941 -9.908711 0.000000
endloop
endfacet
endsolid Exported from Blender-2.93.3
